# xmcd
#
# Track frame offsets: 
#        150
#        805
#        13920
#        27697
#        42191
#        53436
#        63286
#        85362
#        101054
#        119745
#        135031
#        146559
#        163423
#        244899
#
# Disc length: 3414 seconds
#
# Revision: 0
# Processed by: cddbd v1.5.2PL0 Copyright (c) Steve Scherf et al.
# Submitted via: ExactAudioCopy v0.95b4
#
DISCID=b80d540e
DTITLE=Hank Pine and Lily Fawn - North America
DYEAR=2008
DGENRE=Vaudeville
TTITLE0=The Avatars of the Second Sun Departure Song for Those Who Sti
TTITLE0=ll Remain
TTITLE1=North America
TTITLE2=We Can Build You
TTITLE3=We Can Take You Apart
TTITLE4=People
TTITLE5=Xanadu
TTITLE6=Que Hora
TTITLE7=We Got Bones
TTITLE8=Prison Song
TTITLE9=Animals Unite Against Man
TTITLE10=Lucifer
TTITLE11=Long Black Snake Moan
TTITLE12=Big Plans
TTITLE13=Bonus Track
EXTD=
EXTT0=
EXTT1=
EXTT2=
EXTT3=
EXTT4=
EXTT5=
EXTT6=
EXTT7=
EXTT8=
EXTT9=
EXTT10=
EXTT11=
EXTT12=
EXTT13=
PLAYORDER=
